<?xml version="1.0" encoding="UTF-8" standalone="no"?>
<!DOCTYPE svg PUBLIC "-//W3C//DTD SVG 1.1//EN"
 "http://www.w3.org/Graphics/SVG/1.1/DTD/svg11.dtd">
<!-- Generated by graphviz version 2.38.0 (20140413.2041)
 -->
<!-- Title: G Pages: 1 -->
<svg width="158pt" height="232pt"
 viewBox="0.00 0.00 158.00 232.00" xmlns="http://www.w3.org/2000/svg" xmlns:xlink="http://www.w3.org/1999/xlink">
<g id="graph0" class="graph" transform="scale(1 1) rotate(0) translate(4 228)">
<title>G</title>
<polygon fill="white" stroke="none" points="-4,4 -4,-228 154,-228 154,4 -4,4"/>
<g id="clust1" class="cluster"><title>cluster_Global</title>
<path fill="none" stroke="gray" d="M20,-8C20,-8 130,-8 130,-8 136,-8 142,-14 142,-20 142,-20 142,-204 142,-204 142,-210 136,-216 130,-216 130,-216 20,-216 20,-216 14,-216 8,-210 8,-204 8,-204 8,-20 8,-20 8,-14 14,-8 20,-8"/>
<text text-anchor="middle" x="75" y="-203.2" font-family="Times New Roman,serif" font-size="11.00" fill="gray">Global</text>
</g>
<g id="clust2" class="cluster"><title>cluster_\CoolLib</title>
<path fill="none" stroke="gray" d="M47,-116C47,-116 103,-116 103,-116 109,-116 115,-122 115,-128 115,-128 115,-176 115,-176 115,-182 109,-188 103,-188 103,-188 47,-188 47,-188 41,-188 35,-182 35,-176 35,-176 35,-128 35,-128 35,-122 41,-116 47,-116"/>
<text text-anchor="middle" x="75" y="-175.2" font-family="Times New Roman,serif" font-size="11.00" fill="gray">CoolLib</text>
</g>
<!-- \\CoolLib\\Coolify -->
<g id="node1" class="node"><title>\\CoolLib\\Coolify</title>
<polygon fill="none" stroke="black" points="107,-160 43,-160 43,-124 107,-124 107,-160"/>
<text text-anchor="middle" x="75" y="-139.2" font-family="Courier,monospace" font-size="11.00">Coolify</text>
</g>
<!-- \\AutoloadManager -->
<g id="node2" class="node"><title>\\AutoloadManager</title>
<polygon fill="none" stroke="black" points="134,-106 16,-106 16,-70 134,-70 134,-106"/>
<text text-anchor="middle" x="75" y="-85.2" font-family="Courier,monospace" font-size="11.00">AutoloadManager</text>
</g>
<!-- \\Calculator -->
<g id="node3" class="node"><title>\\Calculator</title>
<polygon fill="none" stroke="black" points="117,-52 33,-52 33,-16 117,-16 117,-52"/>
<text text-anchor="middle" x="75" y="-31.2" font-family="Courier,monospace" font-size="11.00">Calculator</text>
</g>
</g>
</svg>
